<svg id="Layer_1" data-name="Layer 1" xmlns="http://www.w3.org/2000/svg" viewBox="0 0 283.42 109.09">
    <path d="M436.32,257.85c.56.36,1.1.74,1.68,1.07l14.38,8.3q6.81,3.94,13.62,7.88c3.53,2,7.08,4.06,10.62,6.09l12,6.93,12.27,7.05c3.87,2.24,7.72,4.49,11.59,6.72L523.11,308c2.38,1.36,4.75,2.74,7.12,4.11.38.22.37.33,0,.57l-10.67,6.14L504,327.8l-15.51,8.95-14,8.05L458.6,354l-15.09,8.72-7.29,4.21V257.85Z" transform="translate(-247.09 -257.85)" fill="#fff"/>
    <path d="M247.19,257.85c.74.45,1.45.93,2.2,1.36,3.61,2.1,7.23,4.18,10.84,6.27l13.26,7.64,13.14,7.61c3.56,2,7.12,4.08,10.67,6.13l12,6.95,13.35,7.69,12.11,7c2,1.16,4,2.29,6,3.45a2.43,2.43,0,0,1,.47.49,3.55,3.55,0,0,1-.46.41l-7.5,4.32-8.53,4.92-15.52,8.95-15.51,9-14.44,8.31-13.95,8.06-14,8.09-4.23,2.46V257.85Z" transform="translate(-247.09 -257.85)" fill="#fff"/>
    <path d="M341.76,366.86v-108c0-.56.28-.71.77-.43l4.91,2.83q6.18,3.56,12.37,7.11c3.31,1.91,6.61,3.85,9.93,5.77q6.15,3.56,12.32,7.08l12.11,7,12.13,7c3.38,1.95,6.75,3.93,10.13,5.88,3.66,2.12,7.33,4.21,11,6.32,2.67,1.53,5.34,3.09,8,4.63l.72.38Z" transform="translate(-247.09 -257.85)" fill="#fff"/>
</svg>