<svg xmlns="http://www.w3.org/2000/svg" width="612.7" height="190.825" viewBox="0 0 612.7 190.825"><path d="M672.8,268.5c7.7,12.6,15.1,24.5,22.9,37.1-8.2,0-15.4.1-22.7-.1-.9,0-2.1-1.1-2.6-2-7.2-11.6-14.3-23.2-22-35.8v37.5H627.9V211.1a9.656,9.656,0,0,1,1.8-.3c15.8,0,31.7-.1,47.5.1,10.4.1,17.1,6.7,17.5,17.2.3,7.6.2,15.2,0,22.8-.3,10.1-7.4,16.9-17.5,17.3C675.8,268.4,674.6,268.4,672.8,268.5Zm-24.4-9.6c2.3-6.4,7.4-7.9,13.3-7.8,13,.2,12.4.5,12.3-13.5a12,12,0,0,0-.3-2,3.834,3.834,0,0,0-3.8-3.7c-7.1-.4-14.3-.2-21.5-.2Z" transform="translate(-89.5 -210.775)"/><path d="M178.3,305.5V212h22.4v35.4h29V212h22.5v93.4H230.1V266.8H200.7v38.6C193.1,305.5,185.9,305.5,178.3,305.5Z" transform="translate(-89.5 -210.775)"/><path d="M340.7,258.4c0-9.7-.4-19.4.1-29.1.7-11.1,7.5-18.4,18.8-18.4,9.6.1,19.2-.1,28.7,0,11.3.2,18.5,6.6,18.8,17.8q.6,29.4,0,59c-.2,11-7.8,17.8-18.9,17.9-9.6.1-19.2.2-28.7,0-12.3-.2-17.6-6.1-18.6-17.8-.8-9.7-.1-19.6-.2-29.4Zm46,.2h0c0-6.9.1-13.9,0-20.8-.1-4.9-1.5-6.1-6.3-6.1H366.2c-2.7,0-4.7.9-4.7,4-.1,14.7-.1,29.3-.1,44,0,3.7,2.4,5.3,6,5.3h12.9c5.1,0,6.3-1.2,6.3-6.5C386.7,271.9,386.7,265.2,386.7,258.6Z" transform="translate(-89.5 -210.775)"/><path d="M615.8,211v20.6H585.2c-10.3,0-10.3,0-10.3,10.4v5.4h40.8v20.9H575c0,4.2-.2,8.1.1,11.9.2,3.5,2.5,4.8,6,4.8,10-.1,20,0,30,0h4.8v20.7h-7.4c-11.2,0-22.5.1-33.7,0-12.4-.1-20.9-7.3-20.6-20.6.4-18,0-36,.1-54,.1-7.6,2.5-14.2,9.6-18a12.827,12.827,0,0,1,5.8-1.9C584.9,211,600.2,211,615.8,211Z" transform="translate(-89.5 -210.775)"/><path d="M479,211v20.6H453.5c-3.2,0-6.4.1-9.6,0-3.6-.1-4.9,1.6-4.9,5-.2,10.6.2,11,10.7,11a105.5,105.5,0,0,1,14.9.6c8.4,1.1,14,7.3,14.4,15.7.3,8.4.3,16.9,0,25.3-.3,8.2-7.3,15.8-15.7,16.1-14.8.6-29.6.2-44.7.2V284.9h33.6c4.6,0,6-1.5,6.2-5.8.4-10.8.4-10.8-10.6-10.8H437c-9.2-.1-17.3-6-18.1-15a155.175,155.175,0,0,1,.5-29.7c.7-6.8,7.7-12.4,14.7-12.5C448.9,210.8,463.8,211,479,211Z" transform="translate(-89.5 -210.775)"/><path d="M331.2,211.1v20.3c-1.6.1-3.1.2-4.5.2H297.1c-5.6,0-7.2,1.7-7.2,7.2v8.7h41.2v20.6H290.2v37.1H269.8V301c0-23.4-.1-46.8.1-70.2a34.835,34.835,0,0,1,1.3-10.2c1.8-5.9,6.4-9.4,12.3-9.5C299.2,210.8,315,211.1,331.2,211.1Z" transform="translate(-89.5 -210.775)"/><path d="M138.8,211.9h22.4c.1,1.4.2,2.6.2,3.8,0,21,.1,42.1-.1,63.1a56.5,56.5,0,0,1-2,13.5,13.887,13.887,0,0,1-8.6,9.5,62.019,62.019,0,0,1-46.2-.1c-6.3-2.4-9.6-8.1-10.8-14.3-1.1-5.5-1-11.2-1.4-17.1h23.3v7.2c.1,4.8,2.2,7.4,6.8,8.5a19.093,19.093,0,0,0,3.3.6c10.1.8,13.1-2,13.1-12.1V211.9Z" transform="translate(-89.5 -210.775)"/><path d="M506.1,231.6h-20V211h60.3v20.5H526.5v73.9H506.1Z" transform="translate(-89.5 -210.775)"/><rect x="2.3" y="104.025" width="606.4" height="1" fill="#e43b27"/><rect x="2.3" y="156.525" width="606.4" height="1" fill="#e43b27"/><path d="M582.9,348.5v8.9H572.5v-8.9Z" transform="translate(-89.5 -210.775)"/><path d="M599,357.9a17.255,17.255,0,0,1-4.9-.6,6.858,6.858,0,0,1-3.2-1.9,7.661,7.661,0,0,1-1.8-3.2,16.271,16.271,0,0,1-.6-4.7v-5.7a19.049,19.049,0,0,1,.6-5.2,7.914,7.914,0,0,1,1.9-3.5,7.349,7.349,0,0,1,3.3-2,18.512,18.512,0,0,1,5-.6h3.3a27.91,27.91,0,0,1,5.5.5,8.562,8.562,0,0,1,3.6,1.6,6.074,6.074,0,0,1,2,2.9,13.3,13.3,0,0,1,.6,4.2h-8.2a10.378,10.378,0,0,0-.3-1.2,2.075,2.075,0,0,0-.6-1,2.281,2.281,0,0,0-1.2-.6,10.611,10.611,0,0,0-2.1-.2h-1.6a4.206,4.206,0,0,0-3.3,1.1,5.9,5.9,0,0,0-.9,3.7v6.1a3.855,3.855,0,0,0,1,3.1,5.129,5.129,0,0,0,3.4.9H602c1.7,0,2.9-.3,3.4-.9a3.649,3.649,0,0,0,.8-2.4h8.2a17.27,17.27,0,0,1-.5,4.2,6.385,6.385,0,0,1-1.7,3,7.2,7.2,0,0,1-3.5,1.7,21.766,21.766,0,0,1-5.6.6H599Z" transform="translate(-89.5 -210.775)"/><path d="M643.7,351.5a8.924,8.924,0,0,1-1.8,3.5,8.617,8.617,0,0,1-3.5,2.1,17.265,17.265,0,0,1-5.4.7h-3a18.458,18.458,0,0,1-5.7-.7,9.031,9.031,0,0,1-3.6-2.1,7.914,7.914,0,0,1-1.9-3.5,18.021,18.021,0,0,1-.5-4.9v-4.2a24.867,24.867,0,0,1,.5-5,7.576,7.576,0,0,1,1.8-3.7,9.7,9.7,0,0,1,3.5-2.3,18.167,18.167,0,0,1,5.7-.8h2.8a18.167,18.167,0,0,1,5.7.8,9.167,9.167,0,0,1,3.6,2.2,8.68,8.68,0,0,1,1.9,3.7,20.052,20.052,0,0,1,.5,5.1v4.2A31.217,31.217,0,0,1,643.7,351.5Zm-13.1-14.7c-1.7,0-2.9.4-3.6,1.3s-1,2.4-1,4.6v3.1c0,2.1.3,3.6,1,4.5s1.8,1.3,3.5,1.3h1.4c1.7,0,2.9-.4,3.5-1.3.7-.9,1-2.4,1-4.5v-3.1c0-2.2-.3-3.7-1-4.6s-1.9-1.3-3.6-1.3Z" transform="translate(-89.5 -210.775)"/><path d="M696.2,357.4h-8.8V342.9a13.786,13.786,0,0,0-.2-2.2,3.594,3.594,0,0,0-.7-1.8,3.09,3.09,0,0,0-1.5-1.2,6.99,6.99,0,0,0-2.7-.4,6.459,6.459,0,0,0-2.6.4,3.978,3.978,0,0,0-1.6,1.2,4.065,4.065,0,0,0-.8,1.9,19.664,19.664,0,0,0-.2,2.6v14h-8.9V343.2a16.592,16.592,0,0,0-.2-2.4,6.191,6.191,0,0,0-.7-1.9,3.978,3.978,0,0,0-1.6-1.2,7.219,7.219,0,0,0-2.8-.4,6.845,6.845,0,0,0-2.7.5,4.172,4.172,0,0,0-1.6,1.3,3.594,3.594,0,0,0-.7,1.8,14.919,14.919,0,0,0-.2,2.1v14.3h-8.9V331.1h8.8V335a6.731,6.731,0,0,1,1.1-1.4,5.861,5.861,0,0,1,1.7-1.3,8.811,8.811,0,0,1,2.6-.9,20.568,20.568,0,0,1,3.9-.3,12.479,12.479,0,0,1,3.5.4,10.047,10.047,0,0,1,2.6,1,8.622,8.622,0,0,1,1.8,1.4,6.57,6.57,0,0,1,1.2,1.7,9.738,9.738,0,0,1,3.1-3.3c1.3-.9,3.3-1.2,5.6-1.2a17.5,17.5,0,0,1,5.6.8,7.99,7.99,0,0,1,3.5,2.1,6.832,6.832,0,0,1,1.8,3.2,16.842,16.842,0,0,1,.5,4v16.2Z" transform="translate(-89.5 -210.775)"/><path d="M97.2,347.7a5.6,5.6,0,0,0,1.8,4.6,7.82,7.82,0,0,0,4.8,1.4h3.5a8.121,8.121,0,0,0,5.2-1.7c1.3-1.1,2-3.1,2-5.8V320.6h3.8v25.7a15.161,15.161,0,0,1-.8,5.1,8.568,8.568,0,0,1-2.3,3.5,9,9,0,0,1-3.4,2,14.9,14.9,0,0,1-4.3.6h-3.6a13.089,13.089,0,0,1-4.1-.6,8.772,8.772,0,0,1-3.3-1.8,10.585,10.585,0,0,1-2.2-2.9,10.33,10.33,0,0,1-.8-4.1v-3h3.8v2.6Z" transform="translate(-89.5 -210.775)"/><path d="M141.3,331.7a7.912,7.912,0,0,1,3,2,7.184,7.184,0,0,1,1.6,3.4,21.852,21.852,0,0,1,.5,4.7v5.3a19.953,19.953,0,0,1-.5,4.5,7.425,7.425,0,0,1-1.6,3.2,7.043,7.043,0,0,1-3,1.9,15.1,15.1,0,0,1-4.6.6h-3.4a15.1,15.1,0,0,1-4.6-.6,7.714,7.714,0,0,1-3-1.9,6.473,6.473,0,0,1-1.6-3.2,19.953,19.953,0,0,1-.5-4.5v-5.3a21.852,21.852,0,0,1,.5-4.7,8.27,8.27,0,0,1,1.6-3.4,6.912,6.912,0,0,1,3-2,12.721,12.721,0,0,1,4.6-.7h3.4A14.358,14.358,0,0,1,141.3,331.7Zm-1.7,22.1a4.333,4.333,0,0,0,2-1.1,5.028,5.028,0,0,0,1.1-2.2,15.838,15.838,0,0,0,.3-3.4v-5.3a19.023,19.023,0,0,0-.3-3.7,4.88,4.88,0,0,0-1-2.3,3.4,3.4,0,0,0-2-1.2,12.621,12.621,0,0,0-3-.3h-3.2a13.54,13.54,0,0,0-3.1.3,3.738,3.738,0,0,0-2,1.2,4.88,4.88,0,0,0-1,2.3,19.023,19.023,0,0,0-.3,3.7v5.3a15.838,15.838,0,0,0,.3,3.4,5.078,5.078,0,0,0,1.1,2.2,3.88,3.88,0,0,0,2,1.1,12.621,12.621,0,0,0,3,.3h3.2A12.31,12.31,0,0,0,139.6,353.8Z" transform="translate(-89.5 -210.775)"/><path d="M171.1,331.9a8.086,8.086,0,0,1,3.4,2,7.456,7.456,0,0,1,1.8,3.1,12.276,12.276,0,0,1,.5,3.9v16.5H173V341c0-2.4-.5-4.2-1.6-5.2s-3-1.6-5.7-1.6H164c-2.9,0-4.9.6-6.2,1.9a6.8,6.8,0,0,0-1.9,5.2v16.1h-4V320.5h3.8v13.9a4.7,4.7,0,0,1,.9-1.2,9.733,9.733,0,0,1,1.5-1.1,9.577,9.577,0,0,1,2.4-.8,16.5,16.5,0,0,1,3.4-.3h1.6A20.458,20.458,0,0,1,171.1,331.9Z" transform="translate(-89.5 -210.775)"/><path d="M205.4,333.8c1.7,1.8,2.6,4.3,2.6,7.6v15.9h-3.8V341.4c0-2.4-.5-4.3-1.6-5.4q-1.65-1.8-5.7-1.8h-2.6c-2.5,0-4.3.6-5.5,1.9a7.566,7.566,0,0,0-1.8,5.3v15.9h-3.8V331.1H187v3.5a6.443,6.443,0,0,1,2.5-2.4,9.072,9.072,0,0,1,4.7-1.1h2.7C200.8,331.1,203.7,332,205.4,333.8Z" transform="translate(-89.5 -210.775)"/><path d="M239.2,320.5v15.9H259V320.5h3.8v36.9H259V340.3H239.2v17.1h-3.9V320.5Z" transform="translate(-89.5 -210.775)"/><path d="M274.8,356.9a5.8,5.8,0,0,1-3-1.8,7.465,7.465,0,0,1-1.8-3.3,19.839,19.839,0,0,1-.6-5.3v-4.6c0-3.8.8-6.6,2.4-8.3s4-2.6,7.2-2.6h3.4q4.95,0,7.5,2.4a8.974,8.974,0,0,1,2.5,6.6v5H273v3.1c0,2.1.5,3.7,1.5,4.6,1,1,2.5,1.4,4.7,1.4h3.4c2.3,0,4-.4,4.9-1.1a3.946,3.946,0,0,0,1.4-3.3V349h3.6v1.1a7.117,7.117,0,0,1-.8,3.4,6.589,6.589,0,0,1-2.1,2.3,7.736,7.736,0,0,1-3.1,1.2,23.37,23.37,0,0,1-3.9.4h-3.4A17.776,17.776,0,0,1,274.8,356.9Zm4.3-22.6a9.336,9.336,0,0,0-3.1.4,4.312,4.312,0,0,0-1.9,1.3,5.374,5.374,0,0,0-1,2.3,16.866,16.866,0,0,0-.3,3.5h15.8a31.144,31.144,0,0,0-.2-3.4,5.231,5.231,0,0,0-.8-2.3,3.81,3.81,0,0,0-1.9-1.3,10.525,10.525,0,0,0-3.4-.4h-3.2Z" transform="translate(-89.5 -210.775)"/><path d="M320.9,333.8c1.7,1.8,2.6,4.3,2.6,7.6v15.9h-3.8V341.4c0-2.4-.5-4.3-1.6-5.4q-1.65-1.8-5.7-1.8h-2.6c-2.5,0-4.3.6-5.5,1.9a7.566,7.566,0,0,0-1.8,5.3v15.9h-3.8V331.1h3.8v3.5a6.443,6.443,0,0,1,2.5-2.4,9.072,9.072,0,0,1,4.7-1.1h2.7C316.3,331.1,319.2,332,320.9,333.8Z" transform="translate(-89.5 -210.775)"/><path d="M349.4,338.8a6.3,6.3,0,0,0-.9-2.4,4.913,4.913,0,0,0-2.1-1.6,8.992,8.992,0,0,0-3.6-.6h-2a8.345,8.345,0,0,0-6,2,8.071,8.071,0,0,0-2,5.7v15.4H329V331.1h3.8v3.2a4.983,4.983,0,0,1,1-1.1,5.6,5.6,0,0,1,1.5-1,10.494,10.494,0,0,1,2.3-.7,15.478,15.478,0,0,1,3.3-.3h1.9a14.771,14.771,0,0,1,5.7.9,7.321,7.321,0,0,1,3.2,2.4,7.922,7.922,0,0,1,1.4,3.4,25.613,25.613,0,0,1,.3,3.9h-3.8C349.6,340.8,349.5,339.8,349.4,338.8Z" transform="translate(-89.5 -210.775)"/><path d="M368.4,352.4l8-21.3h3.9L371.1,356a21.8,21.8,0,0,1-6.2,9.4,14.228,14.228,0,0,1-9.1,3.2v-3.3a9.223,9.223,0,0,0,3.6-.7,13.283,13.283,0,0,0,3.1-1.8,11.344,11.344,0,0,0,2.4-2.5,9.586,9.586,0,0,0,1.5-2.8h-.3l-9.8-26.3h4Z" transform="translate(-89.5 -210.775)"/><path d="M429.5,320.5v3.7H409.6v12.2h19v3.7h-19v17.2h-3.8V320.4h23.7Z" transform="translate(-89.5 -210.775)"/><path d="M452.6,331.7a7.912,7.912,0,0,1,3,2,7.184,7.184,0,0,1,1.6,3.4,21.852,21.852,0,0,1,.5,4.7v5.3a19.953,19.953,0,0,1-.5,4.5,7.425,7.425,0,0,1-1.6,3.2,7.714,7.714,0,0,1-3,1.9,15.1,15.1,0,0,1-4.6.6h-3.4a15.1,15.1,0,0,1-4.6-.6,7.714,7.714,0,0,1-3-1.9,6.473,6.473,0,0,1-1.6-3.2,19.953,19.953,0,0,1-.5-4.5v-5.3a21.852,21.852,0,0,1,.5-4.7,8.27,8.27,0,0,1,1.6-3.4,6.912,6.912,0,0,1,3-2,12.721,12.721,0,0,1,4.6-.7H448A14.358,14.358,0,0,1,452.6,331.7Zm-1.7,22.1a4.333,4.333,0,0,0,2-1.1,5.028,5.028,0,0,0,1.1-2.2,15.838,15.838,0,0,0,.3-3.4v-5.3a19.023,19.023,0,0,0-.3-3.7,4.88,4.88,0,0,0-1-2.3,3.4,3.4,0,0,0-2-1.2,12.621,12.621,0,0,0-3-.3h-3.2a13.54,13.54,0,0,0-3.1.3,3.738,3.738,0,0,0-2,1.2,4.88,4.88,0,0,0-1,2.3,19.023,19.023,0,0,0-.3,3.7v5.3a15.838,15.838,0,0,0,.3,3.4,5.078,5.078,0,0,0,1.1,2.2,3.88,3.88,0,0,0,2,1.1,12.621,12.621,0,0,0,3,.3H448A12.31,12.31,0,0,0,450.9,353.8Z" transform="translate(-89.5 -210.775)"/><path d="M465.9,349v.3q0,4.8,5.7,4.8h6.2a8.113,8.113,0,0,0,3.9-.8c.9-.5,1.3-1.7,1.3-3.4a4.243,4.243,0,0,0-1-3.2c-.7-.7-1.9-1-3.6-1l-8.8-.2a7.8,7.8,0,0,1-5.1-1.7,5.94,5.94,0,0,1-1.9-4.6v-1.1a8.676,8.676,0,0,1,.5-2.8,5.739,5.739,0,0,1,1.5-2.3,8.743,8.743,0,0,1,2.5-1.5,9.689,9.689,0,0,1,3.6-.6h5.8a15.1,15.1,0,0,1,4.6.6,7.43,7.43,0,0,1,2.9,1.7,5.983,5.983,0,0,1,1.6,2.5,10.474,10.474,0,0,1,.5,3v.5h-3.3v-.5a4.223,4.223,0,0,0-1.4-3.3c-.9-.8-2.6-1.2-5-1.2h-5.8a8.26,8.26,0,0,0-2.4.3,5.3,5.3,0,0,0-1.5.8,2.389,2.389,0,0,0-.7,1.3,7.772,7.772,0,0,0-.2,1.6,3.855,3.855,0,0,0,1,3.1,6.452,6.452,0,0,0,3.5.9l8.1.2c2.7.1,4.6.7,5.9,1.9a6.485,6.485,0,0,1,1.9,5v1a6.932,6.932,0,0,1-2,5.1c-1.3,1.3-3.7,1.9-6.9,1.9h-5.7c-3.3,0-5.6-.7-7-2.2a7.7,7.7,0,0,1-2.1-5.7V349Z" transform="translate(-89.5 -210.775)"/><path d="M504.6,354.1c1.5,0,2.5-.4,2.9-1.1a5.129,5.129,0,0,0,.7-3H512a11.091,11.091,0,0,1-.5,3.4,5.935,5.935,0,0,1-1.4,2.3,4.321,4.321,0,0,1-2.2,1.2,12.689,12.689,0,0,1-2.9.4h-4a9.291,9.291,0,0,1-2.9-.5,5.935,5.935,0,0,1-2.3-1.4,5.789,5.789,0,0,1-1.5-2.5,10.444,10.444,0,0,1-.6-3.8V334.5h-3.2V331h3.2v-5h3.8v5h12.6v3.5H497.5v14.9a5.054,5.054,0,0,0,1.1,3.5,3.941,3.941,0,0,0,3.1,1.1h2.9Z" transform="translate(-89.5 -210.775)"/><path d="M522.7,356.9a5.8,5.8,0,0,1-3-1.8,7.465,7.465,0,0,1-1.8-3.3,19.839,19.839,0,0,1-.6-5.3v-4.6c0-3.8.8-6.6,2.4-8.3s4-2.6,7.2-2.6h3.4q4.95,0,7.5,2.4a8.974,8.974,0,0,1,2.5,6.6v5H520.9v3.1c0,2.1.5,3.7,1.5,4.6,1,1,2.5,1.4,4.7,1.4h3.4c2.3,0,4-.4,4.9-1.1a3.946,3.946,0,0,0,1.4-3.3V349h3.6v1.1a7.117,7.117,0,0,1-.8,3.4,6.589,6.589,0,0,1-2.1,2.3,7.736,7.736,0,0,1-3.1,1.2,23.37,23.37,0,0,1-3.9.4h-3.4A17.188,17.188,0,0,1,522.7,356.9Zm4.2-22.6a9.336,9.336,0,0,0-3.1.4,4.312,4.312,0,0,0-1.9,1.3,5.374,5.374,0,0,0-1,2.3,16.866,16.866,0,0,0-.3,3.5h15.8a31.144,31.144,0,0,0-.2-3.4,5.231,5.231,0,0,0-.8-2.3,3.81,3.81,0,0,0-1.9-1.3,10.525,10.525,0,0,0-3.4-.4h-3.2Z" transform="translate(-89.5 -210.775)"/><path d="M566.3,338.8a6.3,6.3,0,0,0-.9-2.4,4.913,4.913,0,0,0-2.1-1.6,8.992,8.992,0,0,0-3.6-.6h-2a8.345,8.345,0,0,0-6,2,8.071,8.071,0,0,0-2,5.7v15.4h-3.8V331.1h3.8v3.2a4.983,4.983,0,0,1,1-1.1,5.6,5.6,0,0,1,1.5-1,10.494,10.494,0,0,1,2.3-.7,15.478,15.478,0,0,1,3.3-.3h1.9a14.771,14.771,0,0,1,5.7.9,7.321,7.321,0,0,1,3.2,2.4,7.922,7.922,0,0,1,1.4,3.4,25.613,25.613,0,0,1,.3,3.9h-3.8A15.137,15.137,0,0,0,566.3,338.8Z" transform="translate(-89.5 -210.775)"/><path d="M98.6,379.8l6.3,16.9h-1.8l-1.5-4.1H92.9l-1.5,4.1H89.5l6.3-16.9Zm-1.4,1.3-3.6,9.8h7.3l-3.7-9.8Z" transform="translate(-89.5 -210.775)"/><path d="M107.2,395.6a5.235,5.235,0,0,1-1.1-3.5v-7.3h1.8v7.4a3.024,3.024,0,0,0,.7,2.3,3.286,3.286,0,0,0,2.4.7h1a4.023,4.023,0,0,0,2.6-.7,2.656,2.656,0,0,0,.9-2.2v-7.4h1.7v12h-1.7v-1.4c-.1.2-.3.3-.4.5a1.612,1.612,0,0,1-.7.4c-.3.1-.6.2-1,.3a5.721,5.721,0,0,1-1.4.1h-1A6.1,6.1,0,0,1,107.2,395.6Z" transform="translate(-89.5 -210.775)"/><path d="M126.1,395.2a1.447,1.447,0,0,0,1.3-.5,2.649,2.649,0,0,0,.3-1.4h1.7a7.772,7.772,0,0,1-.2,1.6,2.425,2.425,0,0,1-.6,1,2.075,2.075,0,0,1-1,.6,5.067,5.067,0,0,1-1.3.2h-1.8a5.067,5.067,0,0,1-1.3-.2,2.589,2.589,0,0,1-1.1-.7,3.458,3.458,0,0,1-.7-1.2,4.309,4.309,0,0,1-.3-1.7v-6.7h-1.5v-1.6h1.5v-2.3h1.7v2.3h5.8v1.6H123V393a2.348,2.348,0,0,0,.5,1.6,1.978,1.978,0,0,0,1.4.5h1.2Z" transform="translate(-89.5 -210.775)"/><path d="M139.6,385a3.39,3.39,0,0,1,1.4.9,4.771,4.771,0,0,1,.8,1.6,7.165,7.165,0,0,1,.2,2.2v2.4a12.482,12.482,0,0,1-.2,2.1,3.606,3.606,0,0,1-.8,1.5,2.845,2.845,0,0,1-1.4.9,6.648,6.648,0,0,1-2.1.3H136a6.648,6.648,0,0,1-2.1-.3,3.39,3.39,0,0,1-1.4-.9,5.3,5.3,0,0,1-.8-1.5,6.816,6.816,0,0,1-.2-2.1v-2.4a14.979,14.979,0,0,1,.2-2.2,4.812,4.812,0,0,1,.8-1.6,2.845,2.845,0,0,1,1.4-.9,6.648,6.648,0,0,1,2.1-.3h1.6A3.158,3.158,0,0,1,139.6,385Zm-.7,10.1a1.934,1.934,0,0,0,.9-.5,2.344,2.344,0,0,0,.5-1,7.115,7.115,0,0,0,.1-1.6v-2.4a8.622,8.622,0,0,0-.1-1.7,2.22,2.22,0,0,0-.5-1.1,1.623,1.623,0,0,0-.9-.5,5.212,5.212,0,0,0-1.4-.2H136a5.212,5.212,0,0,0-1.4.2,1.934,1.934,0,0,0-.9.5,2.812,2.812,0,0,0-.5,1.1,8.116,8.116,0,0,0-.1,1.7V392c0,.6.1,1.2.1,1.6a3.128,3.128,0,0,0,.5,1,1.934,1.934,0,0,0,.9.5,5.721,5.721,0,0,0,1.4.1h1.5A6.15,6.15,0,0,0,138.9,395.1Z" transform="translate(-89.5 -210.775)"/><path d="M162,385a3.766,3.766,0,0,1,1.5.9,3.805,3.805,0,0,1,.9,1.3,4.529,4.529,0,0,1,.3,1.6v7.8H163v-8a2.41,2.41,0,0,0-.7-1.8,2.918,2.918,0,0,0-2.2-.7h-1.2a3.808,3.808,0,0,0-1.6.3,2.552,2.552,0,0,0-1,.7,2.044,2.044,0,0,0-.5.9,2.92,2.92,0,0,0-.2.9v7.8h-1.7v-7.8a3.085,3.085,0,0,0-.1-.9,2.044,2.044,0,0,0-.5-.9,2.178,2.178,0,0,0-.9-.7,3.194,3.194,0,0,0-1.4-.3h-1.2a3.985,3.985,0,0,0-1.7.3,2.723,2.723,0,0,0-1,.8,4.053,4.053,0,0,0-.5.9,2.769,2.769,0,0,0-.1.9v7.6h-1.7v-12h1.7v1.6a4.263,4.263,0,0,1,1.2-1.1,4.473,4.473,0,0,1,2.2-.5h1.2a8.969,8.969,0,0,1,1.8.2,3.337,3.337,0,0,1,1.2.5,2.336,2.336,0,0,1,.7.7,2.506,2.506,0,0,1,.4.7,3.039,3.039,0,0,1,.5-.7,2.407,2.407,0,0,1,.8-.6,11.731,11.731,0,0,1,1.1-.5,6.959,6.959,0,0,1,1.6-.2h1.1A6.093,6.093,0,0,1,162,385Z" transform="translate(-89.5 -210.775)"/><path d="M172.3,389.4a4.121,4.121,0,0,1,1.2.1,1.884,1.884,0,0,1,.8.2l.6.3c.2.1.3.3.4.4v-2.3a1.755,1.755,0,0,0-.6-1.5,2.674,2.674,0,0,0-1.7-.4h-2.4a3.233,3.233,0,0,0-1.6.3,1.29,1.29,0,0,0-.5,1.1v.2H167v-.2a2.583,2.583,0,0,1,.9-2.1,4.369,4.369,0,0,1,2.9-.8h2.5a4.479,4.479,0,0,1,3,.9,3.255,3.255,0,0,1,1,2.3v8.8h-1.7v-1c0,.1-.1.2-.2.3a2.186,2.186,0,0,1-.5.3,4.649,4.649,0,0,1-.9.3,5.721,5.721,0,0,1-1.4.1h-1.8a4.2,4.2,0,0,1-2.9-.9,3.04,3.04,0,0,1-1-2.5v-.6a3.244,3.244,0,0,1,.9-2.4,3.927,3.927,0,0,1,2.8-.9Zm-3.4,5.3a3.439,3.439,0,0,0,2,.5h1.9a2.814,2.814,0,0,0,2-.6,2.111,2.111,0,0,0,.6-1.6,2.769,2.769,0,0,0-.1-.9,1.612,1.612,0,0,0-.4-.7,2.01,2.01,0,0,0-.8-.4,5.313,5.313,0,0,0-1.4-.1H171a3.221,3.221,0,0,0-2,.5,2.059,2.059,0,0,0-.6,1.7A1.754,1.754,0,0,0,168.9,394.7Z" transform="translate(-89.5 -210.775)"/><path d="M185.9,395.2a1.447,1.447,0,0,0,1.3-.5,2.649,2.649,0,0,0,.3-1.4h1.7a7.772,7.772,0,0,1-.2,1.6,2.425,2.425,0,0,1-.6,1,2.075,2.075,0,0,1-1,.6,5.067,5.067,0,0,1-1.3.2h-1.8a5.067,5.067,0,0,1-1.3-.2,2.589,2.589,0,0,1-1.1-.7,3.458,3.458,0,0,1-.7-1.2,4.309,4.309,0,0,1-.3-1.7v-6.7h-1.5v-1.6h1.5v-2.3h1.7v2.3h5.8v1.6h-5.8V393a2.348,2.348,0,0,0,.5,1.6,1.978,1.978,0,0,0,1.4.5h1.4Z" transform="translate(-89.5 -210.775)"/><path d="M193.8,381.6h-1.7v-1.7h1.7Zm0,15.1h-1.7v-12h1.7Z" transform="translate(-89.5 -210.775)"/><path d="M204.7,385a3.39,3.39,0,0,1,1.4.9,4.771,4.771,0,0,1,.8,1.6,7.165,7.165,0,0,1,.2,2.2v2.4a12.482,12.482,0,0,1-.2,2.1,3.606,3.606,0,0,1-.8,1.5,2.845,2.845,0,0,1-1.4.9,6.648,6.648,0,0,1-2.1.3H201a6.648,6.648,0,0,1-2.1-.3,3.39,3.39,0,0,1-1.4-.9,5.3,5.3,0,0,1-.8-1.5,6.816,6.816,0,0,1-.2-2.1v-2.4a14.979,14.979,0,0,1,.2-2.2,4.812,4.812,0,0,1,.8-1.6,2.845,2.845,0,0,1,1.4-.9,6.648,6.648,0,0,1,2.1-.3h1.6A3.607,3.607,0,0,1,204.7,385Zm-.8,10.1a1.934,1.934,0,0,0,.9-.5,2.344,2.344,0,0,0,.5-1,7.115,7.115,0,0,0,.1-1.6v-2.4a8.622,8.622,0,0,0-.1-1.7,2.22,2.22,0,0,0-.5-1.1,1.623,1.623,0,0,0-.9-.5,5.212,5.212,0,0,0-1.4-.2H201a5.212,5.212,0,0,0-1.4.2,1.934,1.934,0,0,0-.9.5,2.812,2.812,0,0,0-.5,1.1,8.116,8.116,0,0,0-.1,1.7V392c0,.6.1,1.2.1,1.6a3.128,3.128,0,0,0,.5,1,1.934,1.934,0,0,0,.9.5,5.721,5.721,0,0,0,1.4.1h1.5A5.313,5.313,0,0,0,203.9,395.1Z" transform="translate(-89.5 -210.775)"/><path d="M219.8,385.9a4.794,4.794,0,0,1,1.2,3.5v7.3h-1.7v-7.3a3.742,3.742,0,0,0-.8-2.5,3.666,3.666,0,0,0-2.6-.8h-1.2a3.18,3.18,0,0,0-2.5.9,3.649,3.649,0,0,0-.8,2.4v7.3h-1.7v-12h1.7v1.6a2.892,2.892,0,0,1,1.1-1.1,4.064,4.064,0,0,1,2.1-.5h1.2C217.7,384.7,219,385.1,219.8,385.9Z" transform="translate(-89.5 -210.775)"/><path d="M271.6,390.7a2.456,2.456,0,0,0-.5-1.5,1.84,1.84,0,0,0-1.6-.6h-6.7v8h-1.7V379.7h7.7a4.954,4.954,0,0,1,3.4,1.1,4.172,4.172,0,0,1,1.1,3.2,5.678,5.678,0,0,1-.5,2.6,2.068,2.068,0,0,1-1.4,1,2.577,2.577,0,0,1,1.3.8,2.445,2.445,0,0,1,.6,1.8v6.3h-1.7v-5.8ZM269,387a2.655,2.655,0,0,0,2-.6,3.217,3.217,0,0,0,.6-2.2,2.2,2.2,0,0,0-2.6-2.6h-6.1V387Z" transform="translate(-89.5 -210.775)"/><path d="M283.7,385a3.39,3.39,0,0,1,1.4.9,4.771,4.771,0,0,1,.8,1.6,7.165,7.165,0,0,1,.2,2.2v2.4a12.482,12.482,0,0,1-.2,2.1,3.606,3.606,0,0,1-.8,1.5,2.845,2.845,0,0,1-1.4.9,6.648,6.648,0,0,1-2.1.3H280a6.648,6.648,0,0,1-2.1-.3,3.39,3.39,0,0,1-1.4-.9,5.3,5.3,0,0,1-.8-1.5,6.816,6.816,0,0,1-.2-2.1v-2.4a14.979,14.979,0,0,1,.2-2.2,4.812,4.812,0,0,1,.8-1.6,2.845,2.845,0,0,1,1.4-.9,6.648,6.648,0,0,1,2.1-.3h1.6A3.607,3.607,0,0,1,283.7,385Zm-.8,10.1a1.934,1.934,0,0,0,.9-.5,2.344,2.344,0,0,0,.5-1,7.115,7.115,0,0,0,.1-1.6v-2.4a8.622,8.622,0,0,0-.1-1.7,2.22,2.22,0,0,0-.5-1.1,1.346,1.346,0,0,0-.9-.5,5.212,5.212,0,0,0-1.4-.2H280a5.212,5.212,0,0,0-1.4.2,1.934,1.934,0,0,0-.9.5,2.812,2.812,0,0,0-.5,1.1,8.116,8.116,0,0,0-.1,1.7V392c0,.6.1,1.2.1,1.6a3.128,3.128,0,0,0,.5,1,1.934,1.934,0,0,0,.9.5,5.721,5.721,0,0,0,1.4.1h1.5A5.721,5.721,0,0,0,282.9,395.1Z" transform="translate(-89.5 -210.775)"/><path d="M290.2,396.7h-1.7V379.9h1.7v6.3c.1-.2.3-.4.4-.6s.4-.3.7-.5c.3-.1.6-.2,1-.3a5.721,5.721,0,0,1,1.4-.1h1.4a4.872,4.872,0,0,1,3.8,1.3,5.689,5.689,0,0,1,1.2,3.9v1.6a5.932,5.932,0,0,1-1.1,3.8,4.76,4.76,0,0,1-3.8,1.4h-1.4a6.622,6.622,0,0,1-1.5-.1,4.649,4.649,0,0,1-.9-.3,1.538,1.538,0,0,1-.6-.4,1.756,1.756,0,0,1-.4-.5v1.3Zm4.7-1.5a3.742,3.742,0,0,0,2.5-.8,3.982,3.982,0,0,0,.9-3v-1.6a4.251,4.251,0,0,0-.8-2.8,3.371,3.371,0,0,0-2.7-.9h-1.2a4.309,4.309,0,0,0-1.7.3,2.552,2.552,0,0,0-1,.7,2.2,2.2,0,0,0-.5,1.2,7.569,7.569,0,0,0-.1,1.5v1.5a4.685,4.685,0,0,0,.8,3,3.418,3.418,0,0,0,2.6.9Z" transform="translate(-89.5 -210.775)"/><path d="M310.1,385a3.39,3.39,0,0,1,1.4.9,4.771,4.771,0,0,1,.8,1.6,7.165,7.165,0,0,1,.2,2.2v2.4a12.482,12.482,0,0,1-.2,2.1,3.606,3.606,0,0,1-.8,1.5,2.845,2.845,0,0,1-1.4.9,6.648,6.648,0,0,1-2.1.3h-1.6a6.648,6.648,0,0,1-2.1-.3,3.39,3.39,0,0,1-1.4-.9,5.3,5.3,0,0,1-.8-1.5,6.816,6.816,0,0,1-.2-2.1v-2.4a14.979,14.979,0,0,1,.2-2.2,4.812,4.812,0,0,1,.8-1.6,2.845,2.845,0,0,1,1.4-.9,6.648,6.648,0,0,1,2.1-.3H308A3.354,3.354,0,0,1,310.1,385Zm-.7,10.1a1.934,1.934,0,0,0,.9-.5,2.344,2.344,0,0,0,.5-1,7.115,7.115,0,0,0,.1-1.6v-2.4a8.622,8.622,0,0,0-.1-1.7,2.22,2.22,0,0,0-.5-1.1,1.623,1.623,0,0,0-.9-.5,5.212,5.212,0,0,0-1.4-.2h-1.5a5.212,5.212,0,0,0-1.4.2,1.934,1.934,0,0,0-.9.5,2.812,2.812,0,0,0-.5,1.1,8.116,8.116,0,0,0-.1,1.7V392c0,.6.1,1.2.1,1.6a3.128,3.128,0,0,0,.5,1,1.934,1.934,0,0,0,.9.5,5.721,5.721,0,0,0,1.4.1H308A6.15,6.15,0,0,0,309.4,395.1Z" transform="translate(-89.5 -210.775)"/><path d="M320.8,395.2a1.447,1.447,0,0,0,1.3-.5,2.649,2.649,0,0,0,.3-1.4h1.7a7.772,7.772,0,0,1-.2,1.6,2.425,2.425,0,0,1-.6,1,2.075,2.075,0,0,1-1,.6,5.067,5.067,0,0,1-1.3.2h-1.8a5.067,5.067,0,0,1-1.3-.2,2.589,2.589,0,0,1-1.1-.7,3.458,3.458,0,0,1-.7-1.2,4.309,4.309,0,0,1-.3-1.7v-6.7h-1.5v-1.6h1.5v-2.3h1.7v2.3h5.8v1.6h-5.8V393a2.348,2.348,0,0,0,.5,1.6,1.978,1.978,0,0,0,1.4.5h1.4Z" transform="translate(-89.5 -210.775)"/><path d="M328.7,381.6H327v-1.7h1.7Zm0,15.1H327v-12h1.7Z" transform="translate(-89.5 -210.775)"/><path d="M340.7,392h1.6v.6a7.772,7.772,0,0,1-.2,1.6,3.1,3.1,0,0,1-.6,1.3,3.045,3.045,0,0,1-1.3.9,6.873,6.873,0,0,1-2.2.3h-1.8a5.412,5.412,0,0,1-1.9-.3,6.376,6.376,0,0,1-1.4-.8,2.718,2.718,0,0,1-.8-1.6,9,9,0,0,1-.3-2.5v-1.6a9,9,0,0,1,.3-2.5,3.54,3.54,0,0,1,.9-1.6,3.766,3.766,0,0,1,1.5-.9,6.648,6.648,0,0,1,2.1-.3h1.2a10.074,10.074,0,0,1,1.9.2,3.479,3.479,0,0,1,1.5.7,2.73,2.73,0,0,1,.9,1.2,4.844,4.844,0,0,1,.3,1.8v.4h-1.6v-.6a2.2,2.2,0,0,0-.6-1.7,4.106,4.106,0,0,0-2.3-.5h-1.3a6.052,6.052,0,0,0-1.5.2,1.456,1.456,0,0,0-.9.6,3.337,3.337,0,0,0-.5,1.2,11.518,11.518,0,0,0-.1,2v1.1a10.315,10.315,0,0,0,.2,2,3.337,3.337,0,0,0,.5,1.2,1.456,1.456,0,0,0,.9.6,5.067,5.067,0,0,0,1.3.2h1.4a6.622,6.622,0,0,0,1.5-.1,1.884,1.884,0,0,0,.9-.4,1.934,1.934,0,0,0,.5-.9,5.721,5.721,0,0,0,.1-1.4V392Z" transform="translate(-89.5 -210.775)"/><path d="M346.4,392.9v.1c0,1.5.9,2.2,2.6,2.2h2.8a3.007,3.007,0,0,0,1.8-.4,1.84,1.84,0,0,0,.6-1.6c0-.7-.1-1.1-.5-1.4a2.457,2.457,0,0,0-1.7-.5l-4-.1a3.2,3.2,0,0,1-2.3-.8,2.583,2.583,0,0,1-.9-2.1v-.5a5.067,5.067,0,0,1,.2-1.3,2.286,2.286,0,0,1,.7-1,3.458,3.458,0,0,1,1.2-.7,4.309,4.309,0,0,1,1.7-.3h2.7a6.648,6.648,0,0,1,2.1.3,2.42,2.42,0,0,1,1.3.8,2.589,2.589,0,0,1,.7,1.1,5.9,5.9,0,0,1,.2,1.4v.2h-1.5v-.2a1.887,1.887,0,0,0-.6-1.5,3.343,3.343,0,0,0-2.3-.6h-2.7a3.75,3.75,0,0,0-1.1.1,1.612,1.612,0,0,0-.7.4.864.864,0,0,0-.3.6,1.7,1.7,0,0,0-.1.7,1.809,1.809,0,0,0,.4,1.4,2.2,2.2,0,0,0,1.6.4l3.7.1a3.667,3.667,0,0,1,2.7.9,3.013,3.013,0,0,1,.9,2.3v.4a3.013,3.013,0,0,1-.9,2.3,4.417,4.417,0,0,1-3.1.9H349a4.1,4.1,0,0,1-3.2-1,3.739,3.739,0,0,1-.9-2.6v-.2h1.5Z" transform="translate(-89.5 -210.775)"/><path d="M393.9,387.4a13.379,13.379,0,0,1,.4-3.8,5.43,5.43,0,0,1,1.2-2.4,4.022,4.022,0,0,1,2.1-1.2,15.138,15.138,0,0,1,3.2-.3h.9c2.3,0,4,.4,5,1.2a4.129,4.129,0,0,1,1.6,3.6h-1.7a5.067,5.067,0,0,0-.2-1.3,1.891,1.891,0,0,0-.8-1,3.387,3.387,0,0,0-1.5-.6,14.042,14.042,0,0,0-2.3-.2h-1a15.742,15.742,0,0,0-2.5.2,2.358,2.358,0,0,0-1.6.9,3.02,3.02,0,0,0-.8,1.8,13.732,13.732,0,0,0-.2,3.1V389a22.79,22.79,0,0,0,.2,3.1,2.758,2.758,0,0,0,2.5,2.6,19.1,19.1,0,0,0,2.8.2h1.1a12.482,12.482,0,0,0,2.1-.2,3.2,3.2,0,0,0,1.3-.5,2.757,2.757,0,0,0,.7-.9,2.966,2.966,0,0,0,.2-1.4h1.7a6.648,6.648,0,0,1-.3,2.1,3.956,3.956,0,0,1-1,1.5,4.8,4.8,0,0,1-1.9.9,11.433,11.433,0,0,1-2.8.3h-1.2a16.866,16.866,0,0,1-3.5-.3,3.951,3.951,0,0,1-2.2-1.2,6.738,6.738,0,0,1-1.2-2.4,14.663,14.663,0,0,1-.3-3.9v-1.5Z" transform="translate(-89.5 -210.775)"/><path d="M418.9,385a3.39,3.39,0,0,1,1.4.9,4.771,4.771,0,0,1,.8,1.6,7.165,7.165,0,0,1,.2,2.2v2.4a12.482,12.482,0,0,1-.2,2.1,3.606,3.606,0,0,1-.8,1.5,2.845,2.845,0,0,1-1.4.9,6.648,6.648,0,0,1-2.1.3h-1.6a6.648,6.648,0,0,1-2.1-.3,3.39,3.39,0,0,1-1.4-.9,5.3,5.3,0,0,1-.8-1.5,6.816,6.816,0,0,1-.2-2.1v-2.4a14.979,14.979,0,0,1,.2-2.2,4.812,4.812,0,0,1,.8-1.6,2.845,2.845,0,0,1,1.4-.9,6.648,6.648,0,0,1,2.1-.3h1.6A3.354,3.354,0,0,1,418.9,385Zm-.7,10.1a1.934,1.934,0,0,0,.9-.5,2.344,2.344,0,0,0,.5-1,7.115,7.115,0,0,0,.1-1.6v-2.4a8.622,8.622,0,0,0-.1-1.7,2.22,2.22,0,0,0-.5-1.1,1.623,1.623,0,0,0-.9-.5,5.212,5.212,0,0,0-1.4-.2h-1.5a5.212,5.212,0,0,0-1.4.2,1.934,1.934,0,0,0-.9.5,2.812,2.812,0,0,0-.5,1.1,8.116,8.116,0,0,0-.1,1.7V392c0,.6.1,1.2.1,1.6a3.128,3.128,0,0,0,.5,1,1.934,1.934,0,0,0,.9.5,5.721,5.721,0,0,0,1.4.1h1.5A6.15,6.15,0,0,0,418.2,395.1Z" transform="translate(-89.5 -210.775)"/><path d="M441.3,385a3.766,3.766,0,0,1,1.5.9,3.805,3.805,0,0,1,.9,1.3,4.529,4.529,0,0,1,.3,1.6v7.8h-1.7v-8a2.41,2.41,0,0,0-.7-1.8,2.918,2.918,0,0,0-2.2-.7H438a3.808,3.808,0,0,0-1.6.3,2.552,2.552,0,0,0-1,.7,2.044,2.044,0,0,0-.5.9,2.92,2.92,0,0,0-.2.9v7.8H433v-7.8a3.085,3.085,0,0,0-.1-.9,2.044,2.044,0,0,0-.5-.9,2.178,2.178,0,0,0-.9-.7,3.194,3.194,0,0,0-1.4-.3h-1.2a3.985,3.985,0,0,0-1.7.3,2.723,2.723,0,0,0-1,.8,4.053,4.053,0,0,0-.5.9,2.769,2.769,0,0,0-.1.9v7.6h-1.7v-12h1.7v1.6a4.263,4.263,0,0,1,1.2-1.1,4.473,4.473,0,0,1,2.2-.5h1.2a8.969,8.969,0,0,1,1.8.2,3.337,3.337,0,0,1,1.2.5,2.336,2.336,0,0,1,.7.7,2.506,2.506,0,0,1,.4.7,3.039,3.039,0,0,1,.5-.7,2.407,2.407,0,0,1,.8-.6,11.731,11.731,0,0,1,1.1-.5,6.959,6.959,0,0,1,1.6-.2h1.1A6.279,6.279,0,0,1,441.3,385Z" transform="translate(-89.5 -210.775)"/><path d="M456.7,386a5.676,5.676,0,0,1,1.1,3.9v1.7a5.689,5.689,0,0,1-1.2,3.9c-.8.9-2,1.3-3.8,1.3h-1.4a6.15,6.15,0,0,1-1.4-.1c-.4-.1-.7-.2-1-.3a1.794,1.794,0,0,1-.7-.5,2.092,2.092,0,0,1-.4-.6v6.3h-1.7V384.7h1.7V386c.1-.2.3-.3.4-.5a2.092,2.092,0,0,1,.6-.4l.9-.3a6.622,6.622,0,0,1,1.5-.1h1.4C454.7,384.6,455.9,385.1,456.7,386Zm-8.6,7a3.337,3.337,0,0,0,.5,1.2,2.286,2.286,0,0,0,1,.7,3.985,3.985,0,0,0,1.7.3h1.2a3.667,3.667,0,0,0,2.7-.9,4.251,4.251,0,0,0,.8-2.8v-1.6a4.139,4.139,0,0,0-.9-3,3.288,3.288,0,0,0-2.5-.8h-1.3a3.418,3.418,0,0,0-2.6.9,4.151,4.151,0,0,0-.8,3v1.5A10.4,10.4,0,0,1,448.1,393Z" transform="translate(-89.5 -210.775)"/><path d="M469.4,388.2a3.582,3.582,0,0,0-.4-1.1,1.6,1.6,0,0,0-.9-.7,3.985,3.985,0,0,0-1.7-.3h-.9a3.667,3.667,0,0,0-2.7.9,3.573,3.573,0,0,0-.9,2.6v7h-1.7v-12h1.7v1.5c.1-.2.3-.3.5-.5a4.233,4.233,0,0,1,.7-.5,2.935,2.935,0,0,1,1-.3,6.622,6.622,0,0,1,1.5-.1h.9a6.163,6.163,0,0,1,2.6.4,5.826,5.826,0,0,1,1.5,1.1,4.594,4.594,0,0,1,.7,1.6,10.869,10.869,0,0,1,.1,1.8h-1.7A8.875,8.875,0,0,1,469.4,388.2Z" transform="translate(-89.5 -210.775)"/><path d="M475.3,396.5a3.924,3.924,0,0,1-1.4-.8,2.751,2.751,0,0,1-.8-1.5,7.8,7.8,0,0,1-.3-2.4v-2.1a5.741,5.741,0,0,1,1.1-3.8,4.163,4.163,0,0,1,3.3-1.2h1.6a4.78,4.78,0,0,1,3.4,1.1,3.719,3.719,0,0,1,1.1,3v2.3h-8.9v1.4a2.541,2.541,0,0,0,.7,2.1,3.1,3.1,0,0,0,2.1.7h1.6a3.722,3.722,0,0,0,2.2-.5,1.755,1.755,0,0,0,.6-1.5v-.4h1.6v.5a2.934,2.934,0,0,1-.4,1.6,2.41,2.41,0,0,1-1,1,5.91,5.91,0,0,1-1.4.6,8.969,8.969,0,0,1-1.8.2H477C476.5,396.7,475.8,396.6,475.3,396.5Zm1.9-10.4a5.212,5.212,0,0,0-1.4.2,1.456,1.456,0,0,0-.9.6,1.82,1.82,0,0,0-.4,1.1,7.589,7.589,0,0,0-.1,1.6h7.2a8.083,8.083,0,0,0-.1-1.6,3.582,3.582,0,0,0-.4-1.1,1.456,1.456,0,0,0-.9-.6,6.052,6.052,0,0,0-1.5-.2Z" transform="translate(-89.5 -210.775)"/><path d="M487.4,392.9v.1c0,1.5.9,2.2,2.6,2.2h2.8a3.007,3.007,0,0,0,1.8-.4,1.84,1.84,0,0,0,.6-1.6c0-.7-.1-1.1-.5-1.4a2.457,2.457,0,0,0-1.7-.5l-4-.1a3.2,3.2,0,0,1-2.3-.8,2.583,2.583,0,0,1-.9-2.1v-.5a5.067,5.067,0,0,1,.2-1.3,2.286,2.286,0,0,1,.7-1,3.458,3.458,0,0,1,1.2-.7,4.309,4.309,0,0,1,1.7-.3h2.7a6.648,6.648,0,0,1,2.1.3,2.42,2.42,0,0,1,1.3.8,2.589,2.589,0,0,1,.7,1.1,5.9,5.9,0,0,1,.2,1.4v.2h-1.5v-.2a1.887,1.887,0,0,0-.6-1.5,3.343,3.343,0,0,0-2.3-.6h-2.7a3.75,3.75,0,0,0-1.1.1,1.612,1.612,0,0,0-.7.4.864.864,0,0,0-.3.6,1.7,1.7,0,0,0-.1.7,1.809,1.809,0,0,0,.4,1.4,2.2,2.2,0,0,0,1.6.4l3.7.1a3.667,3.667,0,0,1,2.7.9,3.013,3.013,0,0,1,.9,2.3v.4a3.013,3.013,0,0,1-.9,2.3,4.417,4.417,0,0,1-3.1.9H490a4.1,4.1,0,0,1-3.2-1,3.739,3.739,0,0,1-.9-2.6v-.2h1.5Z" transform="translate(-89.5 -210.775)"/><path d="M500.6,392.9v.1c0,1.5.9,2.2,2.6,2.2H506a3.007,3.007,0,0,0,1.8-.4,1.84,1.84,0,0,0,.6-1.6c0-.7-.1-1.1-.5-1.4a2.457,2.457,0,0,0-1.7-.5l-4-.1a3.2,3.2,0,0,1-2.3-.8,2.583,2.583,0,0,1-.9-2.1v-.5a5.067,5.067,0,0,1,.2-1.3,2.286,2.286,0,0,1,.7-1,3.458,3.458,0,0,1,1.2-.7,4.309,4.309,0,0,1,1.7-.3h2.7a6.648,6.648,0,0,1,2.1.3,2.42,2.42,0,0,1,1.3.8,2.589,2.589,0,0,1,.7,1.1,5.9,5.9,0,0,1,.2,1.4v.2h-1.5v-.2a1.887,1.887,0,0,0-.6-1.5,3.343,3.343,0,0,0-2.3-.6h-2.7a3.75,3.75,0,0,0-1.1.1,1.612,1.612,0,0,0-.7.4.864.864,0,0,0-.3.6,1.7,1.7,0,0,0-.1.7,1.809,1.809,0,0,0,.4,1.4,2.2,2.2,0,0,0,1.6.4l3.7.1a3.667,3.667,0,0,1,2.7.9,3.013,3.013,0,0,1,.9,2.3v.4a3.013,3.013,0,0,1-.9,2.3,4.417,4.417,0,0,1-3.1.9h-2.6a4.1,4.1,0,0,1-3.2-1,3.739,3.739,0,0,1-.9-2.6v-.2h1.5Z" transform="translate(-89.5 -210.775)"/><path d="M514.9,396.5a3.924,3.924,0,0,1-1.4-.8,2.751,2.751,0,0,1-.8-1.5,7.8,7.8,0,0,1-.3-2.4v-2.1a5.741,5.741,0,0,1,1.1-3.8,4.163,4.163,0,0,1,3.3-1.2h1.6a4.78,4.78,0,0,1,3.4,1.1,3.719,3.719,0,0,1,1.1,3v2.3H514v1.4a2.541,2.541,0,0,0,.7,2.1,3.2,3.2,0,0,0,2.2.7h1.6a3.722,3.722,0,0,0,2.2-.5,1.755,1.755,0,0,0,.6-1.5v-.4h1.6v.5a2.934,2.934,0,0,1-.4,1.6,2.41,2.41,0,0,1-1,1,5.91,5.91,0,0,1-1.4.6,8.969,8.969,0,0,1-1.8.2h-1.6Zm2-10.4a5.212,5.212,0,0,0-1.4.2,1.456,1.456,0,0,0-.9.6,1.82,1.82,0,0,0-.4,1.1,7.589,7.589,0,0,0-.1,1.6h7.2a8.083,8.083,0,0,0-.1-1.6,3.582,3.582,0,0,0-.4-1.1,1.456,1.456,0,0,0-.9-.6,6.052,6.052,0,0,0-1.5-.2Z" transform="translate(-89.5 -210.775)"/><path d="M526.7,395.3a5.56,5.56,0,0,1-1.1-3.8v-1.6a5.689,5.689,0,0,1,1.2-3.9c.8-.9,2-1.3,3.8-1.3H532a6.15,6.15,0,0,1,1.4.1c.4.1.7.2,1,.3a1.024,1.024,0,0,1,.6.5,2.092,2.092,0,0,1,.4.6v-6.3h1.7v16.8h-1.7v-1.3c-.1.2-.3.3-.4.5a2.092,2.092,0,0,1-.6.4l-.9.3a6.622,6.622,0,0,1-1.5.1h-1.4C528.7,396.7,527.4,396.2,526.7,395.3Zm8.5-7a3.337,3.337,0,0,0-.5-1.2,2.286,2.286,0,0,0-1-.7,3.985,3.985,0,0,0-1.7-.3h-1.2a3.667,3.667,0,0,0-2.7.9,4.251,4.251,0,0,0-.8,2.8v1.6a4.139,4.139,0,0,0,.9,3,3.288,3.288,0,0,0,2.5.8H532a3.418,3.418,0,0,0,2.6-.9,4.139,4.139,0,0,0,.9-3v-1.5Q535.35,388.9,535.2,388.3Z" transform="translate(-89.5 -210.775)"/><path d="M557.3,379.8l6.3,16.9h-1.8l-1.5-4.1h-8.7l-1.5,4.1h-1.9l6.3-16.9Zm-1.4,1.3-3.6,9.8h7.3l-3.7-9.8Z" transform="translate(-89.5 -210.775)"/><path d="M567.6,381.6h-1.7v-1.7h1.7Zm0,15.1h-1.7v-12h1.7Z" transform="translate(-89.5 -210.775)"/><path d="M579.8,388.2a3.582,3.582,0,0,0-.4-1.1,1.6,1.6,0,0,0-.9-.7,3.985,3.985,0,0,0-1.7-.3h-.9a3.667,3.667,0,0,0-2.7.9,3.573,3.573,0,0,0-.9,2.6v7h-1.7v-12h1.7v1.5c.1-.2.3-.3.5-.5a4.233,4.233,0,0,1,.7-.5,2.935,2.935,0,0,1,1-.3,6.622,6.622,0,0,1,1.5-.1h.9a6.163,6.163,0,0,1,2.6.4,5.826,5.826,0,0,1,1.5,1.1,4.594,4.594,0,0,1,.7,1.6,10.869,10.869,0,0,1,.1,1.8h-1.7A8.875,8.875,0,0,1,579.8,388.2Z" transform="translate(-89.5 -210.775)"/><path d="M620.4,381c.8-.8,2.1-1.1,3.9-1.1h2.6a10.883,10.883,0,0,1,2.8.3,3.932,3.932,0,0,1,1.7.9,2.751,2.751,0,0,1,.8,1.5,12.31,12.31,0,0,1,.2,2h-1.7a6.052,6.052,0,0,0-.2-1.5,1.456,1.456,0,0,0-.6-.9,3.128,3.128,0,0,0-1-.5,6.15,6.15,0,0,0-1.4-.1h-3.3a6.052,6.052,0,0,0-1.5.2,3.128,3.128,0,0,0-1,.5,2.177,2.177,0,0,0-.5.8,3.75,3.75,0,0,0-.1,1.1v.5a2.352,2.352,0,0,0,.6,1.7,3.048,3.048,0,0,0,2.2.6l3.3.1a9.473,9.473,0,0,1,2.6.4,4.608,4.608,0,0,1,1.7.9,3.805,3.805,0,0,1,.9,1.3,4.671,4.671,0,0,1,.3,1.7v.8a3.9,3.9,0,0,1-1.3,3.3,6.481,6.481,0,0,1-4.1,1.1h-2.7a5.457,5.457,0,0,1-3.7-1,4.2,4.2,0,0,1-1.3-3.3v-.5h1.7v.4a2.564,2.564,0,0,0,.8,2.1,3.905,3.905,0,0,0,2.4.5h2.7a9.2,9.2,0,0,0,1.9-.2,1.684,1.684,0,0,0,1.1-.6,1.905,1.905,0,0,0,.5-1,5.283,5.283,0,0,0,.1-1.3,2.776,2.776,0,0,0-.7-2.2,3.888,3.888,0,0,0-2.5-.8l-3.6-.1a6.053,6.053,0,0,1-3.5-1,3.51,3.51,0,0,1-1.2-3v-.8A3.361,3.361,0,0,1,620.4,381Z" transform="translate(-89.5 -210.775)"/><path d="M637.3,396.5a3.924,3.924,0,0,1-1.4-.8,2.751,2.751,0,0,1-.8-1.5,7.8,7.8,0,0,1-.3-2.4v-2.1a5.741,5.741,0,0,1,1.1-3.8,4.163,4.163,0,0,1,3.3-1.2h1.6a4.78,4.78,0,0,1,3.4,1.1,3.719,3.719,0,0,1,1.1,3v2.3h-8.9v1.4a2.541,2.541,0,0,0,.7,2.1,3.1,3.1,0,0,0,2.1.7h1.6a3.722,3.722,0,0,0,2.2-.5,1.755,1.755,0,0,0,.6-1.5v-.4h1.6v.5a2.934,2.934,0,0,1-.4,1.6,2.41,2.41,0,0,1-1,1c-.4.2-.9.4-1.4.6a8.969,8.969,0,0,1-1.8.2H639C638.4,396.7,637.8,396.6,637.3,396.5Zm1.9-10.4a5.212,5.212,0,0,0-1.4.2,1.456,1.456,0,0,0-.9.6,1.82,1.82,0,0,0-.4,1.1,7.589,7.589,0,0,0-.1,1.6h7.2a8.083,8.083,0,0,0-.1-1.6,3.582,3.582,0,0,0-.4-1.1,1.456,1.456,0,0,0-.9-.6,6.052,6.052,0,0,0-1.5-.2Z" transform="translate(-89.5 -210.775)"/><path d="M657.2,388.2a3.582,3.582,0,0,0-.4-1.1,1.6,1.6,0,0,0-.9-.7,3.985,3.985,0,0,0-1.7-.3h-.9a3.667,3.667,0,0,0-2.7.9,3.573,3.573,0,0,0-.9,2.6v7H648v-12h1.7v1.5c.1-.2.3-.3.5-.5a4.233,4.233,0,0,1,.7-.5,2.935,2.935,0,0,1,1-.3,6.622,6.622,0,0,1,1.5-.1h.9a6.163,6.163,0,0,1,2.6.4,5.826,5.826,0,0,1,1.5,1.1,4.594,4.594,0,0,1,.7,1.6,10.869,10.869,0,0,1,.1,1.8h-1.7A8.875,8.875,0,0,1,657.2,388.2Z" transform="translate(-89.5 -210.775)"/><path d="M666,394.4l3.6-9.7h1.8l-4.5,12h-2l-4.5-12h1.8Z" transform="translate(-89.5 -210.775)"/><path d="M675.3,381.6h-1.7v-1.7h1.7Zm0,15.1h-1.7v-12h1.7Z" transform="translate(-89.5 -210.775)"/><path d="M687.3,392h1.6v.6a7.772,7.772,0,0,1-.2,1.6,3.1,3.1,0,0,1-.6,1.3,3.045,3.045,0,0,1-1.3.9,6.463,6.463,0,0,1-2.2.3h-1.8a5.412,5.412,0,0,1-1.9-.3,6.376,6.376,0,0,1-1.4-.8,2.718,2.718,0,0,1-.8-1.6,9,9,0,0,1-.3-2.5v-1.6a9,9,0,0,1,.3-2.5,3.54,3.54,0,0,1,.9-1.6,3.766,3.766,0,0,1,1.5-.9,6.648,6.648,0,0,1,2.1-.3h1.2a10.074,10.074,0,0,1,1.9.2,3.479,3.479,0,0,1,1.5.7,2.73,2.73,0,0,1,.9,1.2,4.844,4.844,0,0,1,.3,1.8v.4h-1.6v-.6a2.2,2.2,0,0,0-.6-1.7,4.106,4.106,0,0,0-2.3-.5h-1.3a6.052,6.052,0,0,0-1.5.2,1.456,1.456,0,0,0-.9.6,3.337,3.337,0,0,0-.5,1.2,11.518,11.518,0,0,0-.1,2v1.1a10.315,10.315,0,0,0,.2,2,3.337,3.337,0,0,0,.5,1.2,1.456,1.456,0,0,0,.9.6,5.067,5.067,0,0,0,1.3.2h1.4a6.622,6.622,0,0,0,1.5-.1,1.884,1.884,0,0,0,.9-.4,1.934,1.934,0,0,0,.5-.9,5.721,5.721,0,0,0,.1-1.4V392Z" transform="translate(-89.5 -210.775)"/><path d="M694.2,396.5a3.924,3.924,0,0,1-1.4-.8,2.751,2.751,0,0,1-.8-1.5,7.8,7.8,0,0,1-.3-2.4v-2.1a5.741,5.741,0,0,1,1.1-3.8,4.163,4.163,0,0,1,3.3-1.2h1.6a4.78,4.78,0,0,1,3.4,1.1,3.719,3.719,0,0,1,1.1,3v2.3h-8.9v1.4a2.541,2.541,0,0,0,.7,2.1,3.1,3.1,0,0,0,2.1.7h1.6a3.722,3.722,0,0,0,2.2-.5,1.755,1.755,0,0,0,.6-1.5v-.4h1.6v.5a2.934,2.934,0,0,1-.4,1.6,2.41,2.41,0,0,1-1,1,5.91,5.91,0,0,1-1.4.6,8.969,8.969,0,0,1-1.8.2h-1.6C695.4,396.7,694.8,396.6,694.2,396.5Zm2-10.4a5.212,5.212,0,0,0-1.4.2,1.456,1.456,0,0,0-.9.6,1.82,1.82,0,0,0-.4,1.1,7.589,7.589,0,0,0-.1,1.6h7.2a8.083,8.083,0,0,0-.1-1.6,3.582,3.582,0,0,0-.4-1.1,1.456,1.456,0,0,0-.9-.6,6.052,6.052,0,0,0-1.5-.2Z" transform="translate(-89.5 -210.775)"/><circle cx="149.2" cy="178.425" r="4.7" fill="#e43b27"/><circle cx="284.3" cy="178.425" r="4.7" fill="#e43b27"/><circle cx="509.6" cy="178.425" r="4.7" fill="#e43b27"/></svg>