<?xml version="1.0" encoding="UTF-8"?>
<svg xmlns="http://www.w3.org/2000/svg" xmlns:xlink="http://www.w3.org/1999/xlink" width="24" height="24" viewBox="0 0 24 24" version="1.1">
<path d="M 22.269531 0 L 1.730469 0 C 0.773438 0 0 0.773438 0 1.730469 L 0 22.269531 C 0 23.226562 0.773438 24 1.730469 24 L 22.269531 24 C 23.226562 24 24 23.226562 24 22.269531 L 24 1.730469 C 24 0.773438 23.226562 0 22.269531 0 Z M 18.011719 9.1875 L 18.011719 10.808594 C 16.757812 10.808594 15.539062 10.394531 14.546875 9.628906 L 14.558594 14.625 C 14.554688 15.746094 14.105469 16.816406 13.304688 17.601562 C 12.65625 18.246094 11.820312 18.664062 10.917969 18.796875 C 10.703125 18.828125 10.488281 18.84375 10.273438 18.84375 C 9.324219 18.847656 8.398438 18.535156 7.648438 17.953125 C 7.503906 17.84375 7.371094 17.726562 7.242188 17.601562 C 5.644531 16.03125 5.5625 13.484375 7.054688 11.8125 C 7.871094 10.890625 9.042969 10.367188 10.273438 10.371094 C 10.488281 10.371094 10.703125 10.386719 10.917969 10.417969 L 10.917969 12.6875 C 10.085938 12.414062 9.171875 12.707031 8.65625 13.417969 C 8.140625 14.125 8.136719 15.082031 8.652344 15.792969 C 9.164062 16.5 10.078125 16.800781 10.910156 16.527344 C 11.742188 16.257812 12.308594 15.484375 12.308594 14.609375 L 12.308594 5.15625 L 14.542969 5.15625 C 14.5625 7.054688 16.105469 8.585938 18.003906 8.585938 C 18.003906 8.585938 18.011719 8.585938 18.011719 8.582031 Z M 18.011719 9.1875 "/>
</svg>
